# xmcd
#
# Track frame offsets:
#	150
#	12092
#	26102
#	35927
#	48392
#	60055
#	70700
#	82762
#	95517
#	108527
#	119395
#	132515
#	143660
#	157695
#
# Disc length: 2274 seconds
#
# Revision: 1
# Processed by: cddbd v1.5.1PL0 Copyright (c) Steve Scherf et al.
# Submitted via: audiograbber 1.83.01
#
DISCID=ae08e00e
DTITLE=The Platters - The Great Pretender
DYEAR=1900
DGENRE=
TTITLE0=The Great Pretender
TTITLE1=Harbor Lights
TTITLE2=Shine on Harvest Moon
TTITLE3=Twillight Time
TTITLE4=In a Little Spanish Town
TTITLE5=Red Sails in the Sunset
TTITLE6=Smoke Get in your Eyes
TTITLE7=Enchanted
TTITLE8=I'll never Smile again
TTITLE9=Ebb Tide
TTITLE10=I'm Sorry
TTITLE11=Trees
TTITLE12=Thanks for the Money
TTITLE13=Sentimental Journey
EXTD=
EXTT0=
EXTT1=
EXTT2=
EXTT3=
EXTT4=
EXTT5=
EXTT6=
EXTT7=
EXTT8=
EXTT9=
EXTT10=
EXTT11=
EXTT12=
EXTT13=
PLAYORDER=
